<?xml version="1.0" encoding="utf-8"?>

<!DOCTYPE svg PUBLIC "-//W3C//DTD SVG 1.1//EN" "http://www.w3.org/Graphics/SVG/1.1/DTD/svg11.dtd">
<svg version="1.1" id="Layer_1" xmlns="http://www.w3.org/2000/svg" xmlns:xlink="http://www.w3.org/1999/xlink" x="0px" y="0px"
	 viewBox="0 0 1816.7937 1680.2258" enable-background="new 0 0 1816.7937 1680.2258" xml:space="preserve">
<path fill="#202020" d="M1768.0322,476.6058c0.082-5.0997,1.6068-28.0159-9.149-23.8908
	c3.1189-8.0553,16.7523-35.0658,8.2269-41.7469c-11.0393-8.6511-13.9781-23.9314-15.1949-37.1275
	c-1.7949-19.467,1.2583-36.5496,5.5972-55.4289c0.2102-0.9145,4.0696-18.7908,0.3735-17.5031
	c-2.3413,0.8157-10.0724,18.4211-11.683,12.1307c-18.7471,103.7189-54.5583,211.3001-130.5165,287.7488
	c9.3705-33.9479,9.0709-71.3388,1.0011-107.0317c-2.8655-12.6743-6.653-25.1351-11.2438-37.2899
	c-4.0388-10.6931-10.3226-20.2784-14.6583-30.829c-3.9366-8.8127-7.6866-17.6894-11.8081-26.4205
	c-1.1576-2.1733-6.1006-3.6526-8.6045-6.0028c-0.9706-0.911-10.5654-10.8624-11.4861-6.2588
	c-2.4901-4.4287-5.2124-9.0802-8.6567-12.8477c-2.2936-2.5087-8.6084-1.9637-11.9961-4.0201
	c-3.3922-2.0591-26.3846-25.7635-26.1036-25.9461c-0.4458,0.2897,3.2969,7.9205,1.1947,6.6671
	c49.1124,58.1499,85.5861,137.469,72.4464,214.9623c-4.427,26.1088-14.1545,51.1226-28.5314,73.3508
	c-7.5907,11.736-16.1614,22.7095-24.9496,33.5602c-7.4438,9.191-23.204,14.6983-33.772,19.5986
	c-56.2457,26.0806-115.6758,26.8622-176.3447,31.1055c-9.1783,0.6419-18.3502,1.4126-27.4917,2.4606
	c2.1823-11.4528,1.5237-22.1937,2.0516-33.5438c0.6851-4.0186,4.3555-7.3118,1.162-9.6615
	c-2.7172-1.9993-3.8185-6.8505-7.8715-6.694c2.2156-6.6371-7.0828-6.5524-9.2311-12.7757
	c-0.1105-0.7671,2.5966-6.1627-0.1895-4.9088c-4.5249,2.0366-4.2783,6.3737-5.4333,11.512
	c-4.2227,18.7849-8.6189,38.1025-19.02,54.5822c-2.6742,4.5178-5.0134,8.8082-10.0946,9.9798
	c-8.4366,2.577-16.9209,5.1309-25.1359,8.3567c-18.3745,7.2152-35.5912,16.952-51.1206,29.1617
	c-6.1473-35.6138-15.0699-70.687-19.7733-106.5075c-2.4594-18.7299-4.9517-37.4556-7.2606-56.2047
	c-2.5233-20.4904-6.4384-40.137-10.5618-60.3512c-7.5283-36.906-6.7356-72.5631-3.8368-109.9278
	c0.6698-8.634,1.3662-17.2664,2.005-25.9027c0.5468-7.3923,0.4452-7.2051,7.6514-8.9203c4.7666-1.1345,9.5253-2.3024,14.2743-3.5081
	c19.1959-4.8733,38.2408-10.3667,56.9951-16.7389c-1.3103-4.3097-0.6887-4.8288,4.4088-6.364
	c4.9447-1.4891,10.1288-1.6835,15.1643-2.7094c1.9376-0.375,3.8187-0.939,5.6432-1.692c5.407-2.2887-0.3644-3.6947,5.4502-4.9737
	c5.1793-1.1393,10.3539-2.2807,15.514-3.5056c17.0856-4.0558,33.8066-15.1829,48.889-23.9471
	c-3.4319-2.92,13.6353-10.0481,15.8888-11.1503c3.4949-1.7093,6.5659-3.3696,9.6421-5.7201
	c1.7443-3.0961,1.4408-3.4744,5.5013-5.6192c11.6888-6.174,20.2251-19.4843,32.0854-24.4379
	c-4.6936,1.9709,1.8137,1.9923,3.3574,2.219c4.2019,0.617,7.1989-0.8531,11.1372-2.3112
	c7.9667-2.9496,15.8606-6.1037,23.6145-9.5768c-2.0709-4.7751,6.8438-1.2811,6.8409-5.4726
	c4.8992-0.9431,8.2788-1.7914,12.6676-4.2213c3.9806-2.2039,5.3146-4.6346,9.2725-6.0462
	c7.2225-2.5759,14.9242-10.1826,21.671-15.3246c4.4224-3.3649,8.8517-6.7215,13.3575-9.9744
	c4.0112-2.8958,7.1355-7.11,11.8311-8.9632c4.1398-1.6339,9.2018-1.2048,9.9688-5.1575c0.6035-3.11,6.4653-7.6232,3.6909-10.8959
	c7.1122-1.8021,5.0824-2.5925,7.27-8.3414c1.2684-3.3331,4.1593-5.679,7.2255-7.302c2.2113-0.8966,7.2671,0.3986,8.912-1.2474
	c1.5161-1.5938-4.4746-2.0153-2.8986-3.5371c-4.6718,0.4383-9.3065,1.2226-13.8822,2.2558
	c-9.8868,2.2325-19.4631,5.6091-28.8193,9.4768c-15.9946,6.6119-30.5867,15.1546-46.0372,22.882
	c11.2184-12.661,20.048-26.5287,30.5365-39.6921c10.4581-13.1252,24.443-23.2713,36.4432-34.9083
	c-9.33-5.8695,12.8241-33.3793-0.1494-35.5206c3.9027-3.9057,7.8588-7.804,11.3777-12.0666
	c4.0703-4.9307,3.6392-5.6043,1.5341-11.0888c-4.7458-12.3653,2.0693-26.334,8.3921-36.7653
	c3.4539-4.7772,20.2465-15.1321,19.6787-21.1879c-0.2878-3.0693-12.7909,5.299-11.3781,0.4112
	c-58.7937,58.6929-113.1823,121.9583-177.2788,175.0988c6.7943-13.7267,10.8572-33.2088,10.6361-50.5658
	c-0.136-10.6838-3.8611-20.2349-4.4426-30.6942c-0.2562-4.6101,0.7982-9.448-2.9905-11.1805
	c-2.6022-1.1899-7.2275-8.6346-10.6902-5.7231c-2.1893-8.9504-4.2335-4.8179-11.3142-8.4323
	c-2.1089-1.0765-3.824-2.6989-5.4446-4.3943c-1.0656-1.5979-1.4563-6.4451-3.2539-7.2877c-1.3025-0.6543-1.4147,2.8347-1.6584,3.303
	c-1.0342,1.9865,2.0884,7.6423,3.1567,10.5834c2.9094,8.0087,4.9751,16.3848,6.0322,24.841
	c1.71,13.6792,0.9513,29.298-3.4459,42.466c-8.9778,26.8846-32.3667,43.253-42.6793,68.7673
	c1.4102-0.4531,2.8372-0.8448,4.2809-1.1751c-1.9031,1.8209-7.0354,6.3825-5.7689,9.6797c1.0111,2.6327,6.0262,0.2628,7.7603,2.0406
	c-29.593,17.3789-60.7587,31.9979-93.3785,42.7596c-32.8107,10.8247-64.7214,21.3263-94.1754,39.6833
	c-3.7192-7.4723-10.8513-20.0752-20.7683-13.4172c0.8669-11.826,1.7733-23.6662,1.9806-35.5264
	c0.0983-5.6183,1.9609-20.3812-3.3375-24.5215c-3.9095-3.055-9.7456-4.2121-13.9407-7.2826
	c-5.9761-4.3743-10.8851-10.0483-14.8221-16.2945c-5.5745-8.8102-9.4037-18.652-12.3019-28.6317
	c-3.8717-13.3314-7.5178-28.2817-7.2048-42.2143c0.2919-12.9934,2.645-25.8792,4.749-38.6711
	c1.255-7.6297,4.8506-19.0087,2.0714-26.6493c-4.3069-11.7795-16.7499,28.3655-21.0591,16.556
	c-7.3016,62.6314-11.9133,125.5519-14.7275,188.5376c-6.4391-6.4186-25.8363-27.3961-34.017-12.7678
	c-4.545-11.6002-9.1995-23.0745-14.6649-34.2819c-2.8124-5.7674-5.7157-11.6257-9.4493-16.8659
	c-3.5118-5.0307-5.4714-4.9037-11.0887-4.5783c-25.2259,1.4615-47.1407-16.6593-63.7297-33.6352
	c-8.8538-9.0603-17.9606-18.7553-24.3472-29.7452c-7.1038-12.2241-12.7071-25.3258-19.1006-37.9279
	c-0.791-1.5592-14.2665-24.442-14.9839-14.302c-0.1503,3.2887,5.3065,29.7312-2.7922,24.2243
	c49.1068,88.1225,93.4434,180.6022,125.1817,276.5083c-19.6502-12.83-39.8043-24.9037-60.5496-35.8823
	c-0.5723,0.9266,0.2817,2.2715-0.4252,3.0974c-1.4909,1.7421-8.3804-2.4343-9.7344-3.1094
	c-7.6638-3.8213-14.6277-8.8572-21.9818-13.2141c-3.7449-2.2187-7.5646-4.3186-11.5353-6.1089
	c-2.0836-0.9723-4.2259-1.7918-6.4266-2.4584c-1.5427,2.6624-3.4084,2.805-5.5974,0.428
	c-8.4601-4.3232-16.8816-8.653-25.4979-12.6595c-29.3516-13.6483-63.0075-19.6049-94.8056-24.5743
	c1.4408,3.2409-23.5541-1.817-26.5385-2.4239c-5.8553-1.1908-11.7113-2.3811-17.5908-3.4481
	c-6.4549-0.5936-10.312,1.0844-16.5295-0.1158c-26.0964-5.0373-52.9223-6.3564-79.3038-9.8221
	c-13.235-1.7387-26.4502-3.6271-39.6462-5.6397c-5.8136-0.8867-11.6241-1.7946-17.4313-2.7219
	c-3.3998-0.5429-6.7985-1.0924-10.1965-1.6462c-4.7377-0.7722-3.2977-1.4357-5.1241-5.2066
	c-10.6608-22.0106-39.5082-34.5479-60.7454-43.0545c-2.6911,6.0445-12.3721-8.3335-15.8236-3.9726
	c-9.2466-5.0523-18.0498-9.3197-27.8847-13.1876c-16.0873-6.3269-33.9879-12.8012-51.5304-19.7993
	c-10.9995-4.388-21.9041-9.0154-32.6693-13.9515c-10.2224-4.6871-21.3858-8.0917-30.7437-14.4173
	c-4.5425-3.0706-8.859-6.4562-13.2509-9.734c-3.4743-2.593-2.5153-0.1817-6.3097-0.6029
	c-2.1189-0.2352-14.3085-4.5867-14.0511-0.0941c-3.1456-2.4172-6.6183-5.8783-10.4413-7.1853
	c-2.7389-0.9364-8.2276,2.0722-12.1929,0.9927c-5.365-1.4606-10.3863-4.0095-14.5067-7.7388
	c-0.7748-0.7012-7.5221-8.21-8.7874-7.018c-0.6651,0.6266,3.6433,6.3328,1.3844,5.6277
	c63.8616,56.5389,141.143,92.0866,218.8871,125.0218c-26.2056-4.5559-52.9939-5.7538-78.9235-11.8848
	c-24.039-5.684-47.5954-13.1774-71.4427-19.5802c0.8365,7.0334-24.1211,5.5981-27.8049,5.6887
	c-3.0268,0.0744-27.496-0.522-21.7853,7.3044c-12.1029-3.2343-28.2235-10.3731-40.9418-8.9195
	c-1.5855,0.1812-2.4031,1.8357-3.5464,2.791c-2.8399,2.373-6.3226,3.8626-9.8542,4.8684
	c-7.2713,2.0709-15.0472,2.3633-22.5613,2.168c-20.9706-0.5451-40.2989-5.4861-59.7051-13.1857
	c-4.8311-1.898-16.6948-9.2298-22.1776-7.1671c-1.674,0.6298,18.2327,12.9901,11.542,12.5335
	c81.8192,30.3694,168.5651,47.952,253.1917,68.6233c75.9315,18.5474,151.571,36.9222,228.2903,51.99
	c-14.1107,1.6563-28.7888,7.3164-42.687,12.1079c-17.2076,5.9325-34.1473,12.6239-50.84,19.8759
	c-7.3622,4.1827-14.6429,8.0275-22.5977,10.9589c-2.9393,1.0832-20.0681,5.5172-19.8721,7.7119
	c0.2967,3.3217-14.5044,13.3321-9.9082,15.5197c-3.8786,1.4456-9.2618,2.9969-12.2785,5.9928
	c-0.9302,0.9238-0.5751,4.0718-1.0737,5.3431c-1.172,2.9881-3.4242,5.5033-5.7452,7.645
	c-3.5856,3.3691-7.5082,6.2745-12.0204,8.2573c-1.2394,0.5446-10.5769,3.2741-10.3053,5.2289
	c0.1329,0.9564,7.5229-0.818,5.8822,1.0112c48.5921-22.2299,97.9055-43.317,149.8869-56.3414
	c27.3062-6.8418,55.2619-11.915,83.345-14.1423c24.1194-1.913,48.2368-2.0042,71.9527-7.2326
	c6.5992-1.4549,14.4242,1.2556,21.0316,2.5137c6.8243,1.2994,13.6332,2.6855,20.4171,4.1818
	c14.6187,3.2243,28.9166,7.3185,43.2188,11.7119c26.1534,7.4077,51.7488,19.3658,75.7099,32.0287
	c24.4376,12.9148,48.4114,26.4999,72.2243,40.5589c12.0897,7.1377,24.144,14.3332,36.3683,21.2392
	c5.9352,3.3531,12.0085,6.3737,18.1064,9.4192c3.0984,1.5475,6.1969,3.0949,9.2953,4.6424c6.0821,3.028,6.6725,3.6879,8.2148,10.317
	c10.4766,45.0313,18.639,90.4683,27.9146,135.7032c-3.6902-4.2626-7.541-8.2456-11.9793-11.7424
	c-3.4949-2.7537-3.7964-4.13-8.0078-1.9506c-3.3401-3.0657-6.7273-6.0803-10.1678-9.0328
	c-11.5443-9.907-23.4133-19.4579-37.1067-26.1811c-1.0292-12.3908-15.4844-21.5928-24.5922-28.1158
	c-5.2593-3.7668-10.7415-7.2173-16.3677-10.4081c-2.3195,3.8832-7.0632-3.6376-10.1817-4.5384
	c-0.908,1.1088-11.3725-6.2672-14.0023-7.4117c-5.575-2.4263-9.8435-2.572-14.7053-5.4428
	c-9.5574-5.6433-23.9877-8.1594-35.3855-11.5476c-13.0847-3.8896-28.2239-5.7364-40.1048-12.4927
	c-2.4792-1.4099-4.9163-2.8973-7.4334-4.2401c-0.5593,1.8809-3.03,2.2365-4.6445,2.4493c-2.3235,0.3063-8.8527-0.1382-8.709,3.5953
	c-1.048-0.5588-7.1869-4.5562-8.3945-3.0153c-1.8784,2.3921-4.522,3.8733-7.5192,4.3616
	c-3.4429,0.5609-7.4879,0.2822-10.5856-1.3926c-0.4989-0.2698-7.3247-5.0709-7.5778-3.5054
	c-0.1285,0.7951,2.9514,4.1381,1.212,4.3053c31.3965,17.7186,64.8114,31.1039,97.4498,46.1545
	c-4.7394-0.9626-18.0832-5.3243-21.1779-0.0894c-9.4877-1.1275-18.7176-2.7339-28.291-2.5104
	c-20.4557,0.4774-40.8555,2.3087-61.1173,5.1254c-37.9767,5.2795-76.6874,12.8187-113.1688,24.7798
	c-32.0783,10.4514-60.6365,27.3846-75.9909,58.33c-7.4793,16.4813-11.7543,34.907-23.4231,49.1597
	c-10.7725,13.1579-26.2681,20.8483-41.846,26.8453c7.9908,9.8015-44.5329,33.8326-32.1746,40.3619
	c-5.2239,1.4247-38.0072,7.8096-37.8835,14.9598c0.2572,12.9916-10.211,23.9434-18.709,32.5939
	c-11.8104,12.0223-24.593,21.3909-38.1741,31.2496c-0.9608,0.6974-13.5295,11.2197-10.5927,12.0172
	c1.486,0.4035,16.8962-7.1741,14.4352-2.156c28.6383-23.8164,61.3183-38.6419,96.7088-49.0972
	c41.9695-12.3989,84.8123-26.2291,114.636-60.1843c17.0262-19.3849,24.1614-44.3224,39.8022-64.2945
	c12.8605-10.8759,31.2625-15.5023,47.4998-19.1953c19.5689-4.4507,39.5884-7.4272,59.5156-9.7136
	c-19.7828,11.4661-38.869,23.7695-57.1243,37.4525c-4.053,3.0379-8.6893,5.087-13.2899,7.1475
	c-4.2142,1.8874-6.6617,2.0367-7.5636,5.7842c-0.6414,2.6647-8.7728,10.8114-4.7788,13.0128
	c-1.2526,0.6119-9.2592,3.8511-8.709,5.899c0.9873,3.6872-0.185,7.3571-2.2782,10.4195
	c-1.1885,1.7388-15.5222,13.3264-16.1663,12.4536c0.5233,0.7091,5.8073-0.4575,4.7714,1.1957
	c44.2601-23.1387,87.5285-48.5811,133.8394-67.4828c21.3514-8.7145,44.1833-14.3055,65.0828-23.9929
	c5.5893-2.5908,7.127-3.3776,13.5132-2.5652c7.1236,0.9063,14.2377,1.9822,21.2804,3.386
	c8.072,1.6089,16.0148,3.5204,23.9511,5.7255c43.0324,11.2132,83.6517,36.1864,111.5619,70.858
	c13.3574,17.8435,23.8246,36.8518,32.2182,57.5087c9.8159,24.1573,19.1506,48.9961,26.8967,73.8949
	c0.8083-4.5682,1.4619-9.1622,2.282-13.7285c2.9855,53.1321-1.5272,106.6036-8.2076,159.3511
	c-6.2042,48.9873-14.9623,97.8055-27.5132,145.579c-13.0569,49.6993-28.8047,98.8047-45.176,147.5177
	c-8.424,25.2889-16.1781,50.8529-23.5959,76.4541c-5.6237,19.4093-8.7977,38.7964-16.5071,57.6038
	c8.0492-3.0002,15.7798-6.8235,23.3469-10.8788c-8.0094,10.85-18.2649,19.8527-26.238,30.6578
	c-3.782,5.1256-19.0453,20.3057-14.1443,27.6348c5.8308,8.7196,25.7288,6.9304,34.3981,6.766
	c5.7334-0.2657,7.1124,4.4532,10.4695,8.0508c4.3404,4.6512,11.3588,1.7229,16.1112-0.5565
	c-11.5974,9.7107-23.773,18.2267-37.2672,25.1272c0.6597,3.8309,16.4379-7.0891,17.6428-7.9482
	c1.9334-1.3784,21.3932-17.4218,22.3629-13.3636c1.1132,4.6591-20.4357,17.6182-24.6524,20.7538
	c-7.009,5.212-14.5222,10.1378-22.6749,13.3528c7.8182,4.6636,24.7431-6.5729,30.9745-10.3427
	c2.1759-1.3164,26.9766-19.6254,28.8771-15.2404c-9.4377,12.8654-30.2801,16.7694-43.2149,25.0499
	c-6.0601,3.5906-9.7186,10.4066-0.129,6.6208c7.1804-2.8442,13.9948-6.9242,20.4123-11.183
	c-16.0873,12.3627-33.6968,21.5979-50.9936,31.9973c-7.0861,4.2605-15.7657,11.0613-2.1013,12.6913
	c9.0869,1.0833,18.4907-0.4496,27.3786-2.2827c-26.5151,10.3097-54.3853,10.0503-82.3048,10.0671
	c0.722,1.9331,18.7391,1.592,21.0369,1.6686c8.8008,0.2931,17.6598-0.2275,26.3487-1.6805
	c-14.5516,2.7699-29.4847,3.5941-44.2555,2.5011c11.772,8.3883,28.8094,6.512,42.5489,4.3309
	c-10.1192,1.5585-20.1267,2.4664-30.361,2.5837c30.166,13.1733,67.9329,8.5721,98.658-0.9664
	c27.5594-8.5559,51.405-28.9434,71.6976-48.8104c37.8999-37.1049,63.6996-84.6222,84.9932-132.6672
	c23.2611,36.0797,58.2748,62.584,98.0525,78.3025c-9.4293-9.7341-17.6028-20.9326-24.1687-32.7802
	c23.522,22.7307,53.2271,40.5294,86.8624,40.15c3.926-0.1025,15.6769-0.3248,14.5453-6.9255
	c-1.3225-7.7142-11.8645-15.1254-16.4835-21.0679c-3.9414-4.9597-11.1342-11.6578-7.8438-18.4215
	c3.681-7.5667,3.2224-11.9003-2.9006-18.3905c10.2808,5.7813,21.2887,10.2393,32.7698,12.9855
	c1.1594-2.4109-28.783-9.8728-30.7949-14.9674c-1.5532-3.9331,3.6626-2.0048,4.7412-1.3043
	c3.2562,2.1146,6.8517,3.6687,10.5409,4.851c8.2842,2.6548,16.9785,3.3524,25.5374,4.6177
	c-1.9905-5.5529-41.6481-17.1079-35.3468-24.2112c9.894,1.8721,16.0564,14.1351,26.9242,15.8314
	c1.1443,0.1384,8.9799-1.4562,5.7656-3.9513c-3.8583-2.9952-10.5894-4.1906-15.1885-5.782
	c8.9351,2.3528,19.6927,3.2953,28.3955-0.4901c13.0469-5.6748,2.9811-14.5331-4.3518-19.6608
	c7.551,1.0237,16.6031,4.7386,23.5979-0.2998c0.1152,0.1929-11.6232,0.7424-13.2157,0.7153
	c3.8318,0.0753,7.9282-1.2721,11.4784-2.522c-3.5549-3.6252-6.4366-4.3239-11.6244-3.9329
	c2.2291-0.1908,4.4203-0.5908,6.5731-1.2001c-5.1133-5.0765-10.1372-11.0293-13.7695-17.2616
	c-1.577-2.7059-3.1227-8.3715-6.3113-9.562c-6.4189-3.4045-12.2659-7.791-17.3633-12.9666
	c-10.9436-11.1117-17.3708-26.2648-21.9382-40.96c-10.085-32.4475-12.8534-66.6927-15.9911-100.3569
	c-2.2567,0.1277-4.0298,1.8542-6.2554,1.9968c-4.3419,0.2783-4.7572-8.1266-5.0818-10.7909
	c-1.2319-10.113,0.2959-20.215,1.5189-30.2456c1.2439-10.2013,1.9236-20.5304-0.6158-30.6033
	c-2.189-0.3771-4.3752-0.7692-6.5587-1.1763c0.2183-3.5634,0.4675-7.1246,0.7362-10.6843
	c0.4568-6.0505,0.9694-12.0967,1.4888-18.1421c0.9221-10.7341,3.2045-22.3778,2.0458-33.0969
	c-1.1378-10.5251-2.2013-21.0575-3.311-31.5856c-2.5854-24.5303-5.5315-49.0226-8.3663-73.525
	c-8.4982,4.015-6.9934-16.3825-7.141-20.9675c-0.3739-11.616-0.2456-23.2574-0.3088-34.8784
	c-0.0215-3.9503,0.2582-12.337-3.2821-14.9015c-1.067-0.7108-2.2283-1.1824-3.4838-1.4148
	c-0.0924-3.7543-0.1222-7.5099-0.0961-11.2653c0.0565-8.1279,3.6287-13.5106,7.9695-20.1725
	c18.5497-28.4685,42.2778-51.3148,74.9237-62.3176c-0.3845-1.3514-2.4126-2.9056-1.8527-4.472
	c0.903-2.5266,6.0963-3.4222,8.2908-3.8216c6.0294-1.0974,12.1196-0.4503,18.2002-0.4249c2.8265,0.0118,5.5737-0.1183,8.3762-0.4752
	c4.5975-0.5948,5.2152-0.6689,5.9075-5.0657c9.6265,0.2207,19.2311,1.0217,28.8264,1.7799
	c-1.4435,0.7497,2.8722,1.7847,3.2313,1.8903c-3.4299-0.6252-14.225-1.4312-6.34,3.5203c-2.9207-0.8562-5.5887-2.5289-8.6287-3.0076
	c-0.0022,0.0748,4.6311,1.8349,4.748,1.8691c-1.5134-0.4442-3.0267-0.8884-4.5402-1.3326c0.7107,1.6042,2.2836,2.0161,3.8944,2.491
	c-7.5723-2.2234,3.5934,5.404,5.6101,6.6888c2.2472,1.4316,5.083,1.9061,7.6178,2.6504c4.9784,1.462,10.0017,2.9352,15.0624,4.0817
	c5.0737,1.1494,10.149,2.3398,15.2664,3.2823c3.0756,0.5212,6.1544,1.0234,9.2366,1.5045c9.1042,1.4214-0.5747-0.8585,3.8484-1.3952
	c2.8868-0.0519,11.1991,4.5049,12.3428,1.2476c6.9253,1.8697,12.814,2.9638,20.007,3.0524
	c20.2799,0.2499,41.9746-3.5718,63.1732-8.776c6.1058-1.499,12.1781-3.1338,18.2172-4.8821
	c6.4862-1.8777,12.2723-5.3562,18.9301-6.7617c5.4703-1.1549,11.0448-1.6815,16.5156-2.8105
	c-2.1074-4.6589,11.9381-9.417,7.5936-13.5972c2.8024-0.5587,6.3927-1.1141,8.7767-2.8229
	c1.6284-1.1672,1.8326-7.1148,3.6735-9.2632c2.4449-2.8536,5.9207-5.5729,9.538-6.662c0.5475-0.1648,9.5195-1.9362,8.5864-3.1265
	c-0.48-0.6123-5.4058-0.7383-4.2094-2.0849c-45.917,12.9406-92.1003,24.8365-140.2363,23.8591
	c1.0333-4.2328,25.4945-5.2814,29.4579-5.904c6.1399-0.9645,28.6912-2.0483,29.5457-10.2214
	c12.1017-3.2754,23.2909-6.5109,34.5652-12.0933c11.9669-5.9254,23.6495-12.4307,34.9806-19.4963
	c38.5388-24.0316,72.3346-54.2546,102.9125-87.6902c1.5961-1.4514,5.3629-5.6768,7.5062-7.9253
	c2.9053-3.0478,8.0552-14.3552,11.9746-12.4227c-0.7584-0.4672-1.5348-0.9034-2.3291-1.3087
	c4.2885-8.2303,12.2777-15.8891,17.6129-23.3535c10.2742-14.3746,17.9386-29.9921,25.9786-45.6861
	c15.8121-30.8652,36.2891-59.0989,51.1973-90.4635C1764.3712,505.7597,1767.975,482.3454,1768.0322,476.6058
	C1768.2604,462.413,1767.8911,490.7578,1768.0322,476.6058z M1368.2233,291.824c0.3248-0.5291,0.7906-0.6792,1.3972-0.4503
	C1369.1548,291.5239,1368.689,291.674,1368.2233,291.824C1368.3958,291.6639,1368.7314,291.6895,1368.2233,291.824z
	 M466.0521,303.8649c0.5886,0.794,1.1773,1.588,1.7659,2.382C467.1335,306.1321,464.8193,304.4122,466.0521,303.8649
	C466.5295,304.208,465.5629,304.0821,466.0521,303.8649z M1105.823,345.9338c-2.9313,0.7323-4.077,2.2407-5.4818-0.8398
	C1102.1741,345.3371,1104.0013,345.617,1105.823,345.9338C1104.2841,346.3182,1104.1001,345.6298,1105.823,345.9338z
	 M1345.3918,836.6335c-1.7002,0.163-3.9484-1.8459-5.4708-2.3997C1341.0063,834.3195,1346.0565,835.3017,1345.3918,836.6335
	C1344.3922,836.7294,1345.795,835.8257,1345.3918,836.6335z M1637.2557,641.8754c-0.3406-0.2296-0.6913-0.4395-1.0272-0.6765
	C1639.2935,643.1442,1637.8334,642.2648,1637.2557,641.8754z M1670.5695,662.2359c2.0962-0.0051,2.7413,1.2465,4.2933,2.3458
	C1673.4333,663.8013,1672.004,663.0081,1670.5695,662.2359z"/>
</svg>
